<svg width="77" height="77" viewBox="0 0 77 77" fill="none" xmlns="http://www.w3.org/2000/svg">
<path d="M6.5 9.02416H8.02416V7.5V1.52416H38.1041H67.9758V7.5V9.02416H69.5H74.684V38.1041V65.4758H69.5H67.9758V67V74.684H57.1561H38.1041H8.02416V67V65.4758H6.5H1.52416V57.1561V38.1041V9.02416H6.5Z" fill="url(#paint0_linear_5_140)" stroke="#FFE400" stroke-width="3.04833"/>
<path d="M55.6964 50.7146H58.8276V53.8458H55.6964V50.7146Z" fill="#FF8309"/>
<path d="M46.929 53.6893H52.7218V56.6639H46.929V53.6893Z" fill="#FF8309"/>
<path d="M40.8232 12.0442H43.9544V15.1754H40.8232V12.0442Z" fill="#FF8309"/>
<path d="M34.8739 32.8667H38.0051V35.9979H34.8739V32.8667Z" fill="#FF8309"/>
<path d="M38.0051 35.8414H41.1363V38.9726H38.0051V35.8414Z" fill="#FF8309"/>
<path d="M58.8276 29.7355H61.8023V32.8667H58.8276V29.7355Z" fill="#FF8309"/>
<path d="M55.6964 32.8667H58.8276V35.9979H55.6964V32.8667Z" fill="#FF8309"/>
<path d="M58.6711 38.816H61.8023V41.9472H58.6711V38.816Z" fill="#FF8309"/>
<path d="M32.0558 44.7653H34.8739V47.74H32.0558V44.7653Z" fill="#FF8309"/>
<path d="M11.2333 41.7907H14.2079V44.7653H11.2333V41.7907Z" fill="#FF8309"/>
<path d="M43.9544 20.8115H46.9291V23.9427H43.9544V20.8115Z" fill="white"/>
<path d="M40.9798 23.9427H43.9544V27.0739H40.9798V23.9427Z" fill="white"/>
<path d="M58.8277 20.8115H61.8023V23.9427H58.8277V20.8115Z" fill="white"/>
<path d="M55.853 23.9427H58.8277V27.0739H55.853V23.9427Z" fill="white"/>
<path d="M34.8739 35.9979H38.0051V41.7907H34.8739V35.9979Z" fill="#FFEA2F"/>
<path d="M52.8784 12.0442H55.853V23.7862H52.8784V12.0442Z" fill="#FFEA2F"/>
<path d="M49.9037 20.8116H52.8784V23.7862H49.9037V20.8116Z" fill="#FFEA2F"/>
<path d="M34.8739 23.9428H38.0051V32.8667H34.8739V23.9428Z" fill="#FFEA2F"/>
<path d="M38.0051 27.074H40.9798V35.8414H38.0051V27.074Z" fill="#FFEA2F"/>
<path d="M40.9798 30.0486H46.9291V35.8414H40.9798V30.0486Z" fill="#FFEA2F"/>
<path d="M26.1065 44.7653H32.0558V47.74H26.1065V44.7653Z" fill="#FFEA2F"/>
<path d="M46.9291 32.8667H49.9037V38.816H46.9291V32.8667Z" fill="#FFEA2F"/>
<path d="M43.9544 38.9726H46.9291V44.7653H43.9544V38.9726Z" fill="#FFEA2F"/>
<path d="M40.9798 38.9726H43.9544V47.5834H40.9798V38.9726Z" fill="#FFEA2F"/>
<path d="M38.0051 38.9726H41.1363V50.558H38.0051V38.9726Z" fill="#FFEA2F"/>
<path d="M26.1065 32.8667H34.8739V44.7653H26.1065V32.8667Z" fill="#FFEA2F"/>
<path d="M32.0558 47.74H35.187V53.5327H32.0558V47.74Z" fill="#FFEA2F"/>
<path d="M34.8739 44.7653H38.0051V50.558H34.8739V44.7653Z" fill="#FFEA2F"/>
<path d="M38.0051 18.3066H40.9798V23.9428H38.0051V18.3066Z" fill="#FFEA2F"/>
<path d="M55.853 15.0188H58.8277V20.9681H55.853V15.0188Z" fill="#FFEA2F"/>
<path d="M23.1319 35.8414H26.1065V44.7653H23.1319V35.8414Z" fill="#FFEA2F"/>
<path d="M20.1572 38.816H23.1319V44.7653H20.1572V38.816Z" fill="#FFEA2F"/>
<path d="M17.1826 44.9219H20.1572V53.6893H17.1826V44.9219Z" fill="#FFEA2F"/>
<path d="M14.2079 47.8965H17.1826V50.7146H14.2079V47.8965Z" fill="#FFEA2F"/>
<path d="M20.1572 47.8965H26.1065V53.6893H20.1572V47.8965Z" fill="#FFEA2F"/>
<path d="M26.1065 50.8712H32.0558V56.6639H26.1065V50.8712Z" fill="#FFEA2F"/>
<path d="M40.8232 15.1754H52.8784V20.8116H40.8232V15.1754Z" fill="#FFEA2F"/>
<path d="M43.9544 12.0442H52.8783V15.1754H43.9544V12.0442Z" fill="#FFB30B"/>
<path d="M38.0051 15.1754H40.8232V18.3066H38.0051V15.1754Z" fill="#FFB30B"/>
<path d="M35.0305 18.3066H38.0051V21.1247H35.0305V18.3066Z" fill="#FFB30B"/>
<path d="M46.929 29.8921H49.9037V32.8667H46.929V29.8921Z" fill="#FFB30B"/>
<path d="M41.1363 35.8414H46.929V38.9726H41.1363V35.8414Z" fill="#FFB30B"/>
<path d="M34.8739 41.7907H38.0051V44.7653H34.8739V41.7907Z" fill="#FFB30B"/>
<path d="M14.2079 41.7907H20.1572V44.9219H14.2079V41.7907Z" fill="#FFB30B"/>
<path d="M11.2333 44.7653H17.1826V47.8965H11.2333V44.7653Z" fill="#FFB30B"/>
<path d="M32.0558 53.5327H46.929V56.6639H32.0558V53.5327Z" fill="#FFB30B"/>
<path d="M35.0305 50.558H55.6964V53.6893H35.0305V50.558Z" fill="#FFB30B"/>
<path d="M41.1363 47.5834H61.8023V50.7146H41.1363V47.5834Z" fill="#FFB30B"/>
<path d="M43.9544 44.6087H61.8023V47.74H43.9544V44.6087Z" fill="#FFB30B"/>
<path d="M46.929 41.6341H61.8023V44.7653H46.929V41.6341Z" fill="#FFB30B"/>
<path d="M46.929 38.816H58.8276V41.9472H46.929V38.816Z" fill="#FFB30B"/>
<path d="M49.9037 35.9979H58.8276V39.1291H49.9037V35.9979Z" fill="#FFB30B"/>
<path d="M49.9037 32.8667H55.6964V35.9979H49.9037V32.8667Z" fill="#FFB30B"/>
<rect x="49.9037" y="20.8115" width="3.13121" height="2.97465" transform="rotate(90 49.9037 20.8115)" fill="black"/>
<path d="M40.8232 8.91296H55.853V12.0442H40.8232V8.91296Z" fill="black"/>
<path d="M37.8486 12.0442H40.8232V15.1754H37.8486V12.0442Z" fill="#0C0C0C"/>
<path d="M35.0305 15.0188H38.0051V18.15H35.0305V15.0188Z" fill="black"/>
<path d="M32.0558 17.9935H34.8739V32.8667H32.0558V17.9935Z" fill="black"/>
<path d="M34.8739 30.0486V32.8667H26.1065V30.0486H34.8739Z" fill="black"/>
<path d="M26.1065 32.8667V35.8413H23.1319V32.8667H26.1065Z" fill="black"/>
<path d="M23.1319 35.8413V38.816H20.1573V35.8413H23.1319Z" fill="black"/>
<path d="M61.8023 50.7146V53.6892H58.8277V50.7146H61.8023Z" fill="black"/>
<path d="M64.777 38.816V50.7146H61.8023V38.816H64.777Z" fill="black"/>
<path d="M61.8023 32.8667V38.816H58.8277V32.8667H61.8023Z" fill="black"/>
<path d="M64.777 20.9681V32.8667H61.8023V20.9681H64.777Z" fill="black"/>
<path d="M61.8023 15.0188V20.9681H58.8277V15.0188H61.8023Z" fill="black"/>
<path d="M58.8277 12.0442V15.1754H55.853V12.0442H58.8277Z" fill="black"/>
<path d="M58.8277 20.9681V24.0993H55.853V20.9681H58.8277Z" fill="black"/>
<path d="M43.9544 20.8116V23.9428H40.9798V20.8116H43.9544Z" fill="black"/>
<path d="M40.9798 23.9428V27.074H38.0051V23.9428H40.9798Z" fill="black"/>
<path d="M38.0051 21.1247V23.9428H35.0305V21.1247H38.0051Z" fill="black"/>
<path d="M32.0558 47.7399V50.8711H26.1065V47.7399H32.0558Z" fill="black"/>
<path d="M26.1065 44.7653V47.8965H20.1573V44.7653H26.1065Z" fill="black"/>
<path d="M58.8277 26.9174V30.0486H55.853V26.9174H58.8277Z" fill="black"/>
<path d="M55.853 23.7862V26.9174H43.9544V23.7862H55.853Z" fill="black"/>
<path d="M49.9037 26.9174V30.0486H40.9798V26.9174H49.9037Z" fill="black"/>
<path d="M61.8023 23.9428V30.0486H58.8277V23.9428H61.8023Z" fill="black"/>
<path d="M11.2333 41.7906L11.2333 47.7399H8.25867L8.25867 41.7906H11.2333Z" fill="black"/>
<path d="M14.208 47.7399V50.7146H11.2333V47.7399H14.208Z" fill="black"/>
<path d="M17.1826 50.7146V53.6892H14.208V50.7146H17.1826Z" fill="black"/>
<path d="M26.1065 53.6892V56.6639H17.1826V53.6892H26.1065Z" fill="black"/>
<path d="M52.7218 56.6639V59.6385H23.1319V56.6639H52.7218Z" fill="black"/>
<path d="M32.0558 59.6385V62.6132H23.1319V59.6385H32.0558Z" fill="black"/>
<path d="M52.7218 59.6385V62.6132H43.7979V59.6385H52.7218Z" fill="black"/>
<path d="M58.8277 53.6892V56.6639H52.7218V53.6892H58.8277Z" fill="black"/>
<path d="M20.1573 38.816V41.7906H11.2333V38.816H20.1573Z" fill="black"/>
<path d="M32.0558 30.0486H34.8739V32.8667H32.0558V30.0486Z" fill="black"/>
<path d="M49.9037 26.9174H55.853V30.0486H58.8277V32.8667H49.9037V26.9174Z" fill="#1E1E1E"/>
<defs>
<linearGradient id="paint0_linear_5_140" x1="76.2082" y1="-4.54236e-06" x2="-9.08472e-06" y2="76.2082" gradientUnits="userSpaceOnUse">
<stop stop-color="#7200AB"/>
<stop offset="1" stop-color="#610084"/>
</linearGradient>
</defs>
</svg>
